<?xml version="1.0" encoding="utf-8"?>
<!-- Generator: Adobe Illustrator 26.0.2, SVG Export Plug-In . SVG Version: 6.00 Build 0)  -->
<svg version="1.1" id="Outline" xmlns="http://www.w3.org/2000/svg" xmlns:xlink="http://www.w3.org/1999/xlink" x="0px" y="0px"
	 viewBox="0 0 512 512" style="enable-background:new 0 0 512 512;" xml:space="preserve">
<style type="text/css">
	.st0{fill:#999999;}
</style>
<path class="st0" d="M96,373.3H42.7C19.1,373.3,0,392.4,0,416v53.3C0,492.9,19.1,512,42.7,512H96c23.6,0,42.7-19.1,42.7-42.7V416
	C138.7,392.4,119.6,373.3,96,373.3z M96,469.3H42.7V416H96V469.3z"/>
<path class="st0" d="M469.3,373.3H416c-23.6,0-42.7,19.1-42.7,42.7v53.3c0,23.6,19.1,42.7,42.7,42.7h53.3
	c23.6,0,42.7-19.1,42.7-42.7V416C512,392.4,492.9,373.3,469.3,373.3z M469.3,469.3H416V416h53.3V469.3z"/>
<path class="st0" d="M96,186.7H42.7C19.1,186.7,0,205.8,0,229.3v53.3c0,23.6,19.1,42.7,42.7,42.7H96c23.6,0,42.7-19.1,42.7-42.7
	v-53.3C138.7,205.8,119.6,186.7,96,186.7z M96,282.7H42.7v-53.3H96V282.7z"/>
<path class="st0" d="M469.3,186.7H416c-23.6,0-42.7,19.1-42.7,42.7v53.3c0,23.6,19.1,42.7,42.7,42.7h53.3
	c23.6,0,42.7-19.1,42.7-42.7v-53.3C512,205.8,492.9,186.7,469.3,186.7z M469.3,282.7H416v-53.3h53.3V282.7z"/>
<path class="st0" d="M96,0H42.7C19.1,0,0,19.1,0,42.7V96c0,23.6,19.1,42.7,42.7,42.7H96c23.6,0,42.7-19.1,42.7-42.7V42.7
	C138.7,19.1,119.6,0,96,0z M96,96H42.7V42.7H96V96z"/>
<path class="st0" d="M282.7,373.3h-53.3c-23.6,0-42.7,19.1-42.7,42.7v53.3c0,23.6,19.1,42.7,42.7,42.7h53.3
	c23.6,0,42.7-19.1,42.7-42.7V416C325.3,392.4,306.2,373.3,282.7,373.3z M282.7,469.3h-53.3V416h53.3V469.3z"/>
<path class="st0" d="M282.7,186.7h-53.3c-23.6,0-42.7,19.1-42.7,42.7v53.3c0,23.6,19.1,42.7,42.7,42.7h53.3
	c23.6,0,42.7-19.1,42.7-42.7v-53.3C325.3,205.8,306.2,186.7,282.7,186.7z M282.7,282.7h-53.3v-53.3h53.3V282.7z"/>
<path class="st0" d="M282.7,0h-53.3c-23.6,0-42.7,19.1-42.7,42.7V96c0,23.6,19.1,42.7,42.7,42.7h53.3c23.6,0,42.7-19.1,42.7-42.7
	V42.7C325.3,19.1,306.2,0,282.7,0z M282.7,96h-53.3V42.7h53.3V96z"/>
<path class="st0" d="M469.3,0H416c-23.6,0-42.7,19.1-42.7,42.7V96c0,23.6,19.1,42.7,42.7,42.7h53.3c23.6,0,42.7-19.1,42.7-42.7V42.7
	C512,19.1,492.9,0,469.3,0z M469.3,96H416V42.7h53.3V96z"/>
</svg>
