<?xml version="1.0" encoding="utf-8"?>
<!-- Generator: Adobe Illustrator 26.0.2, SVG Export Plug-In . SVG Version: 6.00 Build 0)  -->
<svg version="1.1" id="Layer_1" xmlns="http://www.w3.org/2000/svg" xmlns:xlink="http://www.w3.org/1999/xlink" x="0px" y="0px"
	 viewBox="0 0 512 512" style="enable-background:new 0 0 512 512;" xml:space="preserve">
<style type="text/css">
	.st0{fill:#999999;}
</style>
<g>
	<path class="st0" d="M485,27v22h-22V27H485 M378.3,27v22h-22V27H378.3 M266.7,27v22h-21.4V27H266.7 M160,27v22h-21.4V27H160 M49,27
		v22H27V27H49 M512,0h-76v76h76V0L512,0z M405.3,0h-76v76h76V0L405.3,0z M293.7,0h-75.4v76h75.4V0L293.7,0z M187,0h-75.4v76H187V0
		L187,0z M76,0H0v76h76V0L76,0z"/>
</g>
<g>
	<path class="st0" d="M485,140v22h-22v-22H485 M378.3,140v22h-22v-22H378.3 M266.7,140v22h-21.4v-22H266.7 M160,140v22h-21.4v-22
		H160 M49,140v22H27v-22H49 M512,113h-76v76h76V113L512,113z M405.3,113h-76v76h76V113L405.3,113z M293.7,113h-75.4v76h75.4V113
		L293.7,113z M187,113h-75.4v76H187V113L187,113z M76,113H0v76h76V113L76,113z"/>
</g>
<g>
	<path class="st0" d="M485,463v22h-22v-22H485 M378.3,463v22h-22v-22H378.3 M266.7,463v22h-21.4v-22H266.7 M160,463v22h-21.4v-22
		H160 M49,463v22H27v-22H49 M512,436h-76v76h76V436L512,436z M405.3,436h-76v76h76V436L405.3,436z M293.7,436h-75.4v76h75.4V436
		L293.7,436z M187,436h-75.4v76H187V436L187,436z M76,436H0v76h76V436L76,436z"/>
</g>
<g>
	<path class="st0" d="M485,358v22h-22v-22H485 M378.3,358v22h-22v-22H378.3 M266.7,358v22h-21.4v-22H266.7 M160,358v22h-21.4v-22
		H160 M49,358v22H27v-22H49 M512,331h-76v76h76V331L512,331z M405.3,331h-76v76h76V331L405.3,331z M293.7,331h-75.4v76h75.4V331
		L293.7,331z M187,331h-75.4v76H187V331L187,331z M76,331H0v76h76V331L76,331z"/>
</g>
<g>
	<path class="st0" d="M485,249v22h-22v-22H485 M378.3,249v22h-22v-22H378.3 M266.7,249v22h-21.4v-22H266.7 M160,249v22h-21.4v-22
		H160 M49,249v22H27v-22H49 M512,222h-76v76h76V222L512,222z M405.3,222h-76v76h76V222L405.3,222z M293.7,222h-75.4v76h75.4V222
		L293.7,222z M187,222h-75.4v76H187V222L187,222z M76,222H0v76h76V222L76,222z"/>
</g>
</svg>
