<?xml version="1.0" encoding="utf-8"?>
<!-- Generator: Adobe Illustrator 26.0.2, SVG Export Plug-In . SVG Version: 6.00 Build 0)  -->
<svg version="1.1" id="Layer_1" xmlns="http://www.w3.org/2000/svg" xmlns:xlink="http://www.w3.org/1999/xlink" x="0px" y="0px"
	 viewBox="0 0 512 512" style="enable-background:new 0 0 512 512;" xml:space="preserve">
<style type="text/css">
	.st0{fill:#727272;}
</style>
<path class="st0" d="M405.3,0H106.7C47.8,0.1,0.1,47.8,0,106.7v298.7C0.1,464.2,47.8,511.9,106.7,512h298.7
	c58.9-0.1,106.6-47.8,106.7-106.7V106.7C511.9,47.8,464.2,0.1,405.3,0z M341.3,234.7h-64v-64h64V234.7z M384,170.7h85.3v64H384
	V170.7z M277.3,128V42.7h64V128H277.3z M234.7,128h-64V42.7h64V128z M234.7,170.7v64h-64v-64H234.7z M128,234.7H42.7v-64H128V234.7z
	 M42.7,277.3H128v64H42.7V277.3z M170.7,277.3h64v64h-64V277.3z M234.7,384v85.3h-64V384H234.7z M277.3,384h64v85.3h-64V384z
	 M277.3,341.3v-64h64v64H277.3z M384,277.3h85.3v64H384V277.3z M469.3,106.7V128H384V42.7h21.3C440.7,42.7,469.3,71.3,469.3,106.7z
	 M106.7,42.7H128V128H42.7v-21.3C42.7,71.3,71.3,42.7,106.7,42.7z M42.7,405.3V384H128v85.3h-21.3C71.3,469.3,42.7,440.7,42.7,405.3
	z M405.3,469.3H384V384h85.3v21.3C469.3,440.7,440.7,469.3,405.3,469.3z"/>
</svg>
