<?xml version="1.0" encoding="utf-8"?>
<!-- Generator: Adobe Illustrator 26.0.2, SVG Export Plug-In . SVG Version: 6.00 Build 0)  -->
<svg version="1.1" id="Layer_1" xmlns="http://www.w3.org/2000/svg" xmlns:xlink="http://www.w3.org/1999/xlink" x="0px" y="0px"
	 viewBox="0 0 512 512" style="enable-background:new 0 0 512 512;" xml:space="preserve">
<style type="text/css">
	.st0{fill:#727272;}
</style>
<path class="st0" d="M394.7,0H117.3C52.6,0.1,0.1,52.6,0,117.3v277.3C0.1,459.4,52.6,511.9,117.3,512h277.3
	c64.8-0.1,117.3-52.6,117.3-117.3V117.3C511.9,52.6,459.4,0.1,394.7,0z M213.3,298.7v-85.3h85.3v85.3H213.3z M298.7,362.7V448h-85.3
	v-85.3H298.7z M64,213.3h85.3v85.3H64V213.3z M213.3,149.3V64h85.3v85.3H213.3z M362.7,213.3H448v85.3h-85.3V213.3z M448,117.3v32
	h-85.3V64h32C424.1,64,448,87.9,448,117.3z M117.3,64h32v85.3H64v-32C64,87.9,87.9,64,117.3,64z M64,394.7v-32h85.3V448h-32
	C87.9,448,64,424.1,64,394.7z M394.7,448h-32v-85.3H448v32C448,424.1,424.1,448,394.7,448z"/>
</svg>
