<svg width="442" height="45" viewBox="0 0 442 45" fill="none" xmlns="http://www.w3.org/2000/svg">
<path fill-rule="evenodd" clip-rule="evenodd" d="M15.5455 -190.698C42.3645 -219.832 99.8677 -205.787 138.607 -223.373C180.406 -242.347 199.97 -300.426 247.288 -295.899C293.824 -291.447 297.099 -232.767 329.999 -205.063C363.32 -177.004 427.587 -172.248 439.448 -134.082C451.235 -96.1581 413.83 -59.6808 384.768 -28.8408C359.714 -2.25376 324.798 14.9277 287.115 27.5728C251.915 39.3847 215.127 40.5932 177.165 40.8233C130.068 41.1087 75.3395 54.9909 40.0546 29.0702C4.72903 3.11973 13.4226 -43.649 9.07207 -82.6596C4.96756 -119.464 -11.4811 -161.339 15.5455 -190.698Z" fill="url(#paint0_linear_137_486)"/>
<defs>
<linearGradient id="paint0_linear_137_486" x1="-39.8577" y1="-212.739" x2="242.819" y2="-48.5912" gradientUnits="userSpaceOnUse">
<stop stop-color="#C0C0A4"/>
<stop offset="1" stop-color="#C1C1A5"/>
</linearGradient>
</defs>
</svg>
