<svg width="391" height="244" viewBox="0 0 391 244" fill="none" xmlns="http://www.w3.org/2000/svg">
<path fill-rule="evenodd" clip-rule="evenodd" d="M25.5212 178.029C70.5775 129.085 167.184 152.68 232.267 123.136C302.489 91.258 335.357 -6.31414 414.853 1.29092C493.033 8.77017 498.535 107.353 553.807 153.897C609.787 201.037 717.756 209.026 737.685 273.145C757.486 336.858 694.645 398.141 645.821 449.952C603.73 494.619 545.071 523.484 481.762 544.728C422.626 564.572 360.821 566.603 297.045 566.989C217.921 567.469 125.976 590.791 66.6969 547.244C7.34942 503.647 21.9548 425.074 14.6458 359.536C7.75012 297.704 -19.8839 227.353 25.5212 178.029Z" fill="url(#paint0_linear_137_485)"/>
<defs>
<linearGradient id="paint0_linear_137_485" x1="-218.605" y1="233.5" x2="512.814" y2="172.789" gradientUnits="userSpaceOnUse">
<stop stop-color="#B8B89C"/>
<stop offset="1" stop-color="#DDDDBE"/>
</linearGradient>
</defs>
</svg>
